inDegrees=no
num_controls=7
num_derivatives=13
num_iterations=88
num_multipliers=7
num_parameters=0
num_slacks=7
num_states=26
objective=0.454478
objective_accelerations=0.044187
objective_balance=0.000799
objective_effort=0.036252
objective_height=0.367144
objective_ligament=0.006096
solver_duration=1011.270198
status=Solve_Succeeded
success=true
DataType=double
version=3
OpenSimVersion=4.5
endheader
time	/jointset/ground_pelvis/pelvis_tilt/value	/jointset/ground_pelvis/pelvis_tx/value	/jointset/ground_pelvis/pelvis_ty/value	/jointset/hip_r/hip_flexion_r/value	/jointset/hip_r/hip_adduction_r/value	/jointset/hip_r/hip_rotation_r/value	/jointset/back/lumbar_extension/value	/jointset/patellofemoral_r/patellar_flexion_r/value	/jointset/knee_r/knee_flexion_r/value	/jointset/knee_r/knee_adduction_r/value	/jointset/knee_r/knee_rotation_r/value	/jointset/ankle_r/ankle_angle_r/value	/jointset/subtalar_r/subtalar_angle_r/value	/jointset/ground_pelvis/pelvis_tilt/speed	/jointset/ground_pelvis/pelvis_tx/speed	/jointset/ground_pelvis/pelvis_ty/speed	/jointset/hip_r/hip_flexion_r/speed	/jointset/hip_r/hip_adduction_r/speed	/jointset/hip_r/hip_rotation_r/speed	/jointset/back/lumbar_extension/speed	/jointset/patellofemoral_r/patellar_flexion_r/speed	/jointset/knee_r/knee_flexion_r/speed	/jointset/knee_r/knee_adduction_r/speed	/jointset/knee_r/knee_rotation_r/speed	/jointset/ankle_r/ankle_angle_r/speed	/jointset/subtalar_r/subtalar_angle_r/speed	/forceset/tau_hip_flexion_r	/forceset/tau_hip_adduction_r	/forceset/tau_hip_rotation_r	/forceset/tau_knee_flexion_r	/forceset/tau_ankle_angle_r	/forceset/tau_subtalar_angle_r	/forceset/tau_lumbar_extension	lambda_cid13_p0	lambda_cid14_p0	lambda_cid14_p1	lambda_cid14_p2	lambda_cid14_p3	lambda_cid14_p4	lambda_cid14_p5	/jointset/ground_pelvis/pelvis_tilt/accel	/jointset/ground_pelvis/pelvis_tx/accel	/jointset/ground_pelvis/pelvis_ty/accel	/jointset/hip_r/hip_flexion_r/accel	/jointset/hip_r/hip_adduction_r/accel	/jointset/hip_r/hip_rotation_r/accel	/jointset/back/lumbar_extension/accel	/jointset/patellofemoral_r/patellar_flexion_r/accel	/jointset/knee_r/knee_flexion_r/accel	/jointset/knee_r/knee_adduction_r/accel	/jointset/knee_r/knee_rotation_r/accel	/jointset/ankle_r/ankle_angle_r/accel	/jointset/subtalar_r/subtalar_angle_r/accel	gamma_cid13_p0	gamma_cid14_p0	gamma_cid14_p1	gamma_cid14_p2	gamma_cid14_p3	gamma_cid14_p4	gamma_cid14_p5
1	-0.2066991845809394	-0.001475497059927205	0.6587948244899949	1.338648243752801	-0.2544748627470315	0.09557064973160168	-0.7853978169177879	1.469718725296349	1.469718725296348	0.0488327580857742	0.1745293522381667	0.4362745003339109	0.1407677637141884	0.06928002596897535	0.005075416184833892	0.01472245640109307	-0.09916866238844257	-0.001744205375139739	-0.006047269037810184	4.923413831497364e-05	-0.01787075359754232	-0.01787075359754187	0.001243837530507026	1.012863081218653e-05	0.01166122973554427	0.002181593160028754	-0.3160084334625319	0.02443594965150479	0.05068612099532922	-0.4596173862490612	-0.0291436294736975	-0.01745776999068834	0.3469433194096299	-0.04057263629498899	-61.71302448969305	-21.47436378546971	7.371574739400815	8.759209905725241	-760.385542251522	66.60131176450668	1.313175734826441	0.1464673711855631	1.661274106175252	-5.115613335180588	-0.07829424304457995	-1.495884920494746	-0.01075297285183911	-4.753286578915392	-4.753286578915398	0.08918260561323305	0.005102894873832371	-1.181372176399816	-0.6485537308082971	8.088014774352665e-11	-1.707928676356268e-09	-4.671326763784384e-09	-7.062555717330173e-10	3.420138229362974e-09	-5.618891016041081e-09	-1.007703626819336e-08
1.01	-0.2059424102139754	-0.001417278095774544	0.6590249188157263	1.337402501765752	-0.2544961114880316	0.09543533244215326	-0.785394593847884	1.469302456838666	1.469302456838666	0.04884940777867273	0.1745294807734237	0.4363321498733765	0.1407573987147104	0.08197326186780661	0.006585636685696731	0.03129033202334267	-0.1498996047028903	-0.002505262598084436	-0.02101340524702253	0.0008453946543990781	-0.06539546539673435	-0.06539546539673351	0.002092193477853744	1.489742784815142e-05	-0.0001226126698186604	-0.004249735513085215	-0.316800021721905	0.02451313902037839	0.05068997115357021	-0.4596984458147948	-0.02939863177209548	-0.01742609310696174	0.3480779309350254	-0.0405756352887694	-61.83523056942035	-21.47987973242101	7.370027677726107	8.572555995601448	-761.2038049323892	66.62180878080201	1.232159860155117	0.1558898883669551	1.653630926573818	-5.039815223652835	-0.07496938117145216	-1.496561408991759	0.1623027850352538	-4.753942561195232	-4.753942561195194	0.08357668423534978	-0.001939398364568784	-1.175584364285404	-0.6396944991511686	-1.8652217555281e-10	-3.81849120407364e-09	-2.11809977140553e-09	-3.759855454364194e-09	7.423545874646217e-09	-9.240335347351329e-09	-9.698665543975523e-09
1.02	-0.2050617510194725	-0.00134343882684723	0.6594205092249462	1.335651854246749	-0.2545249623851125	0.09515043710304485	-0.7853759087285529	1.468410565446835	1.468410565446834	0.04887472395001859	0.1745296363425604	0.4362722221704854	0.1406828660157832	0.09405699147638222	0.008199477139764252	0.04782167309857963	-0.2001497687803728	-0.003264636591111622	-0.03596287897052687	0.003141644018352715	-0.1129953404268868	-0.1129953404268856	0.002977133222798921	1.553540556331639e-05	-0.01185421874241493	-0.01065194672972751	-0.3175916099812557	0.02459032838925612	0.0506938213118612	-0.4597795053805235	-0.02965363407049482	-0.01739441622322893	0.3492125424604409	-0.04058424355097292	-61.96504831771289	-21.48390757774806	7.365021539193815	8.39316062287951	-762.1629929853495	66.64248252746773	1.191274476775285	0.1671913618265116	1.653967196772723	-5.019457687787557	-0.07795759706107754	-1.492552423353146	0.289264796721999	-4.768319225107468	-4.768319225107487	0.09649936513292226	0.004276731009667815	-1.170924909846464	-0.6427302395139526	-6.940085007472115e-10	-4.767103163660839e-09	-7.60179646124597e-10	-8.046398301340695e-09	8.63834056046531e-09	-1.334623189551885e-08	-1.284446050264208e-08
1.03	-0.2040622263778799	-0.001252948452821173	0.6599812954206691	1.333400025701937	-0.2545613799818801	0.09471618979712786	-0.7853281337021206	1.467042331685351	1.467042331685351	0.04890908947742387	0.1745297654892497	0.4360952874459181	0.1405445331976335	0.1058521555398016	0.009915351384723287	0.06433581524833541	-0.2502423708220429	-0.004017110527221542	-0.05087817511085436	0.006528619524211959	-0.1606610162154464	-0.1606610162154465	0.003904176554599839	9.358539366709716e-06	-0.02351966254197892	-0.01700306345182528	-0.3181067987208837	0.02467807323382326	0.05066782954918051	-0.4593325300340121	-0.03017383875188805	-0.01731575530351398	0.3500010201632804	-0.04059919422710103	-62.14592598196767	-21.46355456161325	7.341375085479784	8.340926676240755	-762.6315854707717	66.6291378608054	1.174270330284763	0.1763004859139989	1.650171588080676	-5.008126356954522	-0.07362724031138829	-1.489759973744031	0.3807026658629739	-4.767132163651755	-4.767132163651949	0.09203964091269763	-0.003208147429225914	-1.162395282232083	-0.6295706429334548	-1.203944662695676e-09	-5.703858484797721e-09	5.855434703083903e-10	-1.234552219897379e-08	9.824680012004139e-09	-1.745707183365431e-08	-1.60262163356238e-08
1.04	-0.2029446235038211	-0.001144796330328876	0.6607072298106914	1.330646478157789	-0.2546052693076953	0.09413304117693794	-0.785243031172959	1.465197153084397	1.465197153084397	0.04895297200287353	0.1745298042168871	0.4358020900499098	0.1403430355613873	0.1176726379695998	0.011731826833012	0.08085131195825561	-0.3004935686476213	-0.004758982400350453	-0.06574314182604198	0.01060714456387637	-0.2083843083208645	-0.2083843083208658	0.004880532834761968	-2.548406625096939e-06	-0.03510675303037031	-0.02328491034895321	-0.3186219874605119	0.02476581807839546	0.05064183778655151	-0.4588855546874973	-0.0306940434332792	-0.01723709438378952	0.3507894978661195	-0.04061989645309604	-62.33454242802313	-21.44180535683553	7.314363774271041	8.294484936458757	-763.2433958859086	66.61609471616555	1.196338150051018	0.1873116024924703	1.654238108805605	-5.051176844569229	-0.07583718446488028	-1.482486538325172	0.427574703483016	-4.779842488479163	-4.779842488479161	0.1063619548051635	0.003130715050629633	-1.155254247611903	-0.6288762745199723	-1.976534878210894e-09	-5.487707194460474e-09	3.606728696172782e-09	-1.687897995197849e-08	8.511064324344671e-09	-1.850735695908949e-08	-1.640825390038241e-08
1.05	-0.2017096010986769	-0.001017996413320766	0.6615981236024434	1.327390879902187	-0.2546564812660541	0.09340148073410234	-0.7851126624757006	1.462874611373475	1.462874611373475	0.04900674635564001	0.1745297089448404	0.4353932417772828	0.1400790887262766	0.1292424308017539	0.01364299088009469	0.09730717128956561	-0.350524438701056	-0.005477512098693783	-0.08056055849455719	0.01568734251736728	-0.2561176353476722	-0.2561176353476732	0.005872390923773406	-1.594736898280129e-05	-0.04666714127890653	-0.02949108502466899	-0.3187662787244812	0.02478712251504237	0.05059869472325383	-0.4581998704645643	-0.03102125627519169	-0.01715079814068974	0.3513409713992531	-0.04065443707243626	-62.43007367998181	-21.39447325218152	7.276456309285852	8.199748389801602	-763.4232103503331	66.59643408990652	1.123887998500096	0.1952453624098212	1.638214677845906	-4.963795985260898	-0.06897827842842653	-1.480115683553277	0.5813544856812561	-4.769117473017841	-4.769117473017822	0.0953093873186686	-0.003495958278076212	-1.157067797179082	-0.6144837327515313	-2.757333032900071e-09	-5.235527572514667e-09	6.680272112956894e-09	-2.141976063796355e-08	7.119325038585273e-09	-1.946199974662781e-08	-1.670280026925907e-08
1.06	-0.2003615631354704	-0.0008716395445231459	0.6626529669540201	1.323638022166141	-0.2547147020045799	0.09252199683409847	-0.7849248693700269	1.460074928459638	1.460074928459638	0.04907038161955801	0.1745294955318993	0.4348686622854288	0.1397534810106774	0.1402757495820057	0.01564321719091419	0.1136412239229796	-0.3999454647357009	-0.006160738433413248	-0.09532783326061647	0.02209202624682522	-0.3038125489039274	-0.3038125489039281	0.006852715067566525	-2.617658730372785e-05	-0.0582529968756255	-0.03561708644655048	-0.3189105699884634	0.02480842695169324	0.05055555165999519	-0.4575141862416288	-0.03134846911710035	-0.01706450189758149	0.3518924449323745	-0.04069481495605613	-62.53349936323822	-21.34584003616814	7.235276630412682	8.109937733355128	-763.7480691674114	66.57743238381541	1.089043339670532	0.2051240552398576	1.6298767692264	-4.929208040811248	-0.06877651174011551	-1.472458157833991	0.6924718586764113	-4.772159794368653	-4.772159794368634	0.1040551657615015	0.003764663857996184	-1.160347717248416	-0.6128416237531094	-3.565137266762569e-09	-6.590168339734766e-09	5.244379504942788e-09	-2.80650177286606e-08	9.471015830933879e-09	-2.329773919070626e-08	-2.374429517460267e-08
1.07	-0.1989050289191338	-0.0007047980124529545	0.6638705877463208	1.319393110226924	-0.2547795618813539	0.091495233742397	-0.7846674797017578	1.456798540983663	1.456798540983664	0.04914385916863383	0.1745291594101589	0.4342282041923606	0.1393671090816455	0.151023640083341	0.01774357453171229	0.129866984830104	-0.4490219594968323	-0.006803541213451344	-0.110000330287006	0.02950276359498267	-0.3514535660984724	-0.3514535660984743	0.00785229804494882	-4.505697796199197e-05	-0.06983255972337092	-0.04163450694655575	-0.3186861359476969	0.02477880262476514	0.05049664812488244	-0.4565406388226766	-0.03154191202882796	-0.01696292086645865	0.3520791493954843	-0.0407395782900643	-62.5613320915723	-21.27015584708676	7.181586146604117	7.984167254866625	-763.6240763937985	66.54994718890713	1.066543888862475	0.2152668102878197	1.616527781621452	-4.894626296513868	-0.06088132590542605	-1.460983927407307	0.7829031010449763	-4.758364766740923	-4.758364766741115	0.0993402069128192	-0.005323577245854399	-1.155852120530712	-0.5927769307592082	-4.374377994198117e-09	-8.030278276591359e-09	3.568623278588321e-09	-3.482221505365085e-08	1.202182524445847e-08	-2.728672845694111e-08	-3.114467032124775e-08
1.08	-0.1973412394010841	-0.0005163978596172103	0.6652499865537269	1.314657882119548	-0.2548506196188833	0.09032247798996124	-0.7843324769743741	1.453046084918794	1.453046084918793	0.04922761861610968	0.1745285126471752	0.4334721321604162	0.1389212460140862	0.1617268099245744	0.01995494134402476	0.1459968269438855	-0.4980086983679515	-0.007400310584280649	-0.1245263654080313	0.03761463806952476	-0.3990262666827542	-0.3990262666827573	0.008909094749780638	-8.830483734389367e-05	-0.08137578465083971	-0.04751531415195986	-0.3184617019069145	0.02474917829783915	0.0504377445898085	-0.4555670914037209	-0.03173535494055676	-0.01686133983533307	0.3522658538586085	-0.0407904865726741	-62.59727290565914	-21.19329720728661	7.124745579543339	7.862555679199565	-763.6471843602355	66.52377524316996	1.080099207650151	0.2273259495427547	1.61069301055783	-4.911256862808817	-0.05956982989836874	-1.443165776761158	0.8326992839533316	-4.75849647231598	-4.75849647231598	0.1154979112514104	-0.00110882988671076	-1.153080133193048	-0.585518964832883	-5.160388802516428e-09	-8.441315714142167e-09	4.567771494115662e-09	-4.034958958471394e-08	1.219636191130756e-08	-2.917643849595503e-08	-3.394581649857624e-08
